<?xml version="1.0" encoding="UTF-8" standalone="no"?>
<!-- Created with Inkscape (http://www.inkscape.org/) -->

<svg
   xmlns:dc="http://purl.org/dc/elements/1.1/"
   xmlns:cc="http://creativecommons.org/ns#"
   xmlns:rdf="http://www.w3.org/1999/02/22-rdf-syntax-ns#"
   xmlns:svg="http://www.w3.org/2000/svg"
   xmlns="http://www.w3.org/2000/svg"
   xmlns:sodipodi="http://sodipodi.sourceforge.net/DTD/sodipodi-0.dtd"
   xmlns:inkscape="http://www.inkscape.org/namespaces/inkscape"
   width="256"
   height="256"
   id="svg3338"
   version="1.1"
   inkscape:version="0.48.5 r10040"
   sodipodi:docname="logo_simple.svg">
  <defs
     id="defs3340" />
  <sodipodi:namedview
     id="base"
     pagecolor="#ffffff"
     bordercolor="#666666"
     borderopacity="1.0"
     inkscape:pageopacity="0.0"
     inkscape:pageshadow="2"
     inkscape:zoom="1.979899"
     inkscape:cx="-6.6020597"
     inkscape:cy="65.476498"
     inkscape:document-units="px"
     inkscape:current-layer="layer1"
     showgrid="false"
     inkscape:window-width="1464"
     inkscape:window-height="969"
     inkscape:window-x="10"
     inkscape:window-y="18"
     inkscape:window-maximized="0"
     fit-margin-top="0"
     fit-margin-left="0"
     fit-margin-right="0"
     fit-margin-bottom="0"
     showborder="true" />
  <metadata
     id="metadata3343">
    <rdf:RDF>
      <cc:Work
         rdf:about="">
        <dc:format>image/svg+xml</dc:format>
        <dc:type
           rdf:resource="http://purl.org/dc/dcmitype/StillImage" />
        <dc:title />
      </cc:Work>
    </rdf:RDF>
  </metadata>
  <g
     inkscape:label="Layer 1"
     inkscape:groupmode="layer"
     id="layer1"
     transform="translate(-45.79196,68.336413)">
    <g
       id="g3069"
       transform="matrix(2.5674246,0,0,-2.5995243,243.94856,-53.692615)">
      <path
         d="m 0,0 c -1.959,0 -3.367,-1.47 -3.367,-3.366 0,-1.838 1.347,-3.307 3.244,-3.307 2.143,0 3.489,1.469 3.429,3.307 C 3.306,-1.47 2.02,0 0,0"
         style="fill:#f5811e;fill-opacity:1;fill-rule:nonzero;stroke:none"
         id="path3071"
         inkscape:connector-curvature="0" />
    </g>
    <g
       id="g3073"
       transform="matrix(2.5674246,0,0,-2.5995243,243.43201,-29.044184)">
      <path
         d="m 0,0 c -3.494,0 -5.976,2.708 -5.976,6.089 0,3.494 2.594,6.201 6.202,6.201 3.72,0 6.088,-2.707 6.088,-6.201 C 6.425,2.708 3.946,0 0,0 m 0.245,14.455 c -4.879,0 -8.385,-3.66 -8.385,-8.385 0,-4.574 3.354,-8.234 8.079,-8.234 5.337,0 8.692,3.66 8.54,8.234 0,4.725 -3.203,8.385 -8.234,8.385"
         style="fill:#1e3352;fill-opacity:1;fill-rule:nonzero;stroke:none"
         id="path3075"
         inkscape:connector-curvature="0" />
    </g>
    <g
       id="g3077"
       transform="matrix(2.5674246,0,0,-2.5995243,247.75835,-5.8361517)">
      <path
         d="m 0,0 -6.145,-28.711 c -0.077,-0.849 -0.189,-1.688 -0.357,-2.507 -0.192,-0.942 -0.462,-1.852 -0.767,-2.745 l -0.033,-0.157 -0.017,0.009 c -3.089,-8.855 -11.495,-15.219 -21.405,-15.219 -12.527,0 -22.683,10.155 -22.683,22.684 0,2.366 0.365,4.646 1.037,6.791 l 9.941,-2.82 c -0.424,-1.248 -0.664,-2.58 -0.664,-3.971 0,-6.832 5.538,-12.37 12.369,-12.37 6.067,0 11.104,4.372 12.157,10.134 l 7.204,36.301 c -5.712,3.254 -12.316,5.122 -19.361,5.122 -21.642,0 -39.187,-17.546 -39.187,-39.187 0,-21.644 17.545,-39.187 39.187,-39.187 21.643,0 39.188,17.543 39.188,39.187 C 10.464,-16.354 6.489,-6.993 0,0"
         style="fill:#f5811e;fill-opacity:1;fill-rule:nonzero;stroke:none"
         id="path3079"
         inkscape:connector-curvature="0" />
    </g>
    <g
       id="g3081"
       transform="matrix(2.5674246,0,0,-2.5995243,262.42581,-21.843243)">
      <path
         d="m 0,0 c -0.323,-0.262 -0.664,-0.502 -1.014,-0.728 8.002,-8.335 12.936,-19.637 12.936,-32.076 0,-25.562 -20.797,-46.358 -46.359,-46.358 -25.562,0 -46.358,20.796 -46.358,46.358 0,25.562 20.796,46.359 46.358,46.359 5.58,0 10.932,-0.992 15.891,-2.806 0.066,0.413 0.154,0.819 0.263,1.217 -5.047,1.826 -10.485,2.826 -16.154,2.826 -26.244,0 -47.596,-21.351 -47.596,-47.596 0,-26.245 21.352,-47.596 47.596,-47.596 26.244,0 47.596,21.351 47.596,47.596 C 13.159,-20.096 8.144,-8.543 0,0"
         style="fill:#1b3252;fill-opacity:1;fill-rule:nonzero;stroke:none"
         id="path3083"
         inkscape:connector-curvature="0" />
    </g>
  </g>
</svg>
