<?xml version="1.0" encoding="UTF-8" standalone="no"?>
<!-- Created with Inkscape (http://www.inkscape.org/) -->

<svg
   xmlns:dc="http://purl.org/dc/elements/1.1/"
   xmlns:cc="http://creativecommons.org/ns#"
   xmlns:rdf="http://www.w3.org/1999/02/22-rdf-syntax-ns#"
   xmlns:svg="http://www.w3.org/2000/svg"
   xmlns="http://www.w3.org/2000/svg"
   xmlns:sodipodi="http://sodipodi.sourceforge.net/DTD/sodipodi-0.dtd"
   xmlns:inkscape="http://www.inkscape.org/namespaces/inkscape"
   id="svg2985"
   version="1.1"
   inkscape:version="0.48.5 r10040"
   width="153.88799"
   height="155.44948"
   xml:space="preserve"
   sodipodi:docname="Jorani_Logo.pdf"><metadata
     id="metadata2991"><rdf:RDF><cc:Work
         rdf:about=""><dc:format>image/svg+xml</dc:format><dc:type
           rdf:resource="http://purl.org/dc/dcmitype/StillImage" /><dc:title></dc:title></cc:Work></rdf:RDF></metadata><defs
     id="defs2989"><clipPath
       clipPathUnits="userSpaceOnUse"
       id="clipPath3221"><path
         d="m 544.291,320.933 164.88,0 0,-144.349 -164.88,0 0,144.349 z"
         id="path3223"
         inkscape:connector-curvature="0" /></clipPath><clipPath
       clipPathUnits="userSpaceOnUse"
       id="clipPath3225"><path
         d="m 709.171,276.518 c 0,-24.531 -36.91,-44.416 -82.44,-44.416 -45.53,0 -82.44,19.885 -82.44,44.416 0,24.529 36.91,44.415 82.44,44.415 45.53,0 82.44,-19.886 82.44,-44.415"
         id="path3227"
         inkscape:connector-curvature="0" /></clipPath></defs><sodipodi:namedview
     pagecolor="#ffffff"
     bordercolor="#666666"
     borderopacity="1"
     objecttolerance="10"
     gridtolerance="10"
     guidetolerance="10"
     inkscape:pageopacity="0"
     inkscape:pageshadow="2"
     inkscape:window-width="1218"
     inkscape:window-height="815"
     id="namedview2987"
     showgrid="false"
     fit-margin-top="0"
     fit-margin-left="0"
     fit-margin-right="0"
     fit-margin-bottom="0"
     inkscape:zoom="2.0534381"
     inkscape:cx="145.24134"
     inkscape:cy="43.567022"
     inkscape:window-x="0"
     inkscape:window-y="0"
     inkscape:window-maximized="0"
     inkscape:current-layer="g2993" /><g
     id="g2993"
     inkscape:groupmode="layer"
     inkscape:label="Jorani_Logo"
     transform="matrix(1.25,0,0,-1.25,-24.266938,502.73364)"><g
       id="g3163"
       transform="translate(114.64135,395.72473)"><path
         d="m 0,0 c -2.493,0 -4.284,-1.871 -4.284,-4.284 0,-2.338 1.713,-4.207 4.127,-4.207 2.726,0 4.439,1.869 4.363,4.207 C 4.206,-1.871 2.569,0 0,0"
         style="fill:#f5811e;fill-opacity:1;fill-rule:nonzero;stroke:none"
         id="path3165"
         inkscape:connector-curvature="0" /></g><g
       id="g3167"
       transform="translate(114.38455,383.66023)"><path
         d="m 0,0 c -4.445,0 -7.604,3.444 -7.604,7.748 0,4.445 3.3,7.89 7.891,7.89 4.734,0 7.748,-3.445 7.748,-7.89 C 8.177,3.444 5.021,0 0,0 m 0.312,18.393 c -6.208,0 -10.67,-4.657 -10.67,-10.67 0,-5.821 4.268,-10.478 10.281,-10.478 6.791,0 11.059,4.657 10.866,10.478 0,6.013 -4.075,10.67 -10.477,10.67"
         style="fill:#1e3352;fill-opacity:1;fill-rule:nonzero;stroke:none"
         id="path3169"
         inkscape:connector-curvature="0" /></g><g
       id="g3171"
       transform="translate(116.52905,372.29893)"><path
         d="m 0,0 -7.819,-36.533 c -0.098,-1.082 -0.241,-2.148 -0.454,-3.191 -0.246,-1.198 -0.588,-2.356 -0.977,-3.494 l -0.043,-0.198 -0.02,0.012 c -3.931,-11.269 -14.628,-19.367 -27.238,-19.367 -15.94,0 -28.864,12.922 -28.864,28.865 0,3.01 0.465,5.912 1.32,8.641 l 12.651,-3.588 c -0.539,-1.588 -0.845,-3.283 -0.845,-5.053 0,-8.694 7.047,-15.74 15.738,-15.74 7.721,0 14.13,5.563 15.469,12.895 l 9.169,46.191 c -7.27,4.141 -15.674,6.518 -24.638,6.518 -27.538,0 -49.864,-22.325 -49.864,-49.864 0,-27.541 22.326,-49.865 49.864,-49.865 27.54,0 49.865,22.324 49.865,49.865 C 13.314,-20.809 8.257,-8.898 0,0"
         style="fill:#f5811e;fill-opacity:1;fill-rule:nonzero;stroke:none"
         id="path3173"
         inkscape:connector-curvature="0" /></g><g
       id="g3175"
       transform="translate(123.79855,380.13533)"><path
         d="m 0,0 c -0.412,-0.333 -0.845,-0.64 -1.291,-0.927 10.184,-10.607 16.462,-24.987 16.462,-40.816 0,-32.527 -26.464,-58.989 -58.991,-58.989 -32.527,0 -58.991,26.462 -58.991,58.989 0,32.528 26.464,58.99 58.991,58.99 7.1,0 13.912,-1.262 20.22,-3.571 0.084,0.526 0.197,1.044 0.335,1.55 -6.422,2.324 -13.341,3.596 -20.555,3.596 -33.395,0 -60.565,-27.169 -60.565,-60.565 0,-33.395 27.17,-60.565 60.565,-60.565 33.395,0 60.565,27.17 60.565,60.565 C 16.745,-25.572 10.362,-10.873 0,0"
         style="fill:#1e3352;fill-opacity:1;fill-rule:nonzero;stroke:none"
         id="path3177"
         inkscape:connector-curvature="0" /></g><g
       id="g3217"
       transform="translate(-542.14876,101.37741)"><g
         id="g3219" /><g
         id="g3229"><g
           clip-path="url(#clipPath3221)"
           id="g3231"
           style="opacity:0.30000299"><g
             id="g3233"><g
               clip-path="url(#clipPath3225)"
               id="g3235"><g
                 transform="translate(658.7705,294.481)"
                 id="g3237"><path
                   d="m 0,0 c -2.493,0 -4.284,-1.871 -4.284,-4.284 0,-2.338 1.713,-4.207 4.127,-4.207 2.726,0 4.439,1.869 4.363,4.207 C 4.206,-1.871 2.569,0 0,0"
                   style="fill:#ffffff;fill-opacity:1;fill-rule:nonzero;stroke:none"
                   id="path3239"
                   inkscape:connector-curvature="0" /></g><g
                 transform="translate(658.5137,282.4165)"
                 id="g3241"><path
                   d="m 0,0 c -4.445,0 -7.604,3.444 -7.604,7.748 0,4.445 3.3,7.89 7.891,7.89 4.734,0 7.748,-3.445 7.748,-7.89 C 8.177,3.444 5.021,0 0,0 m 0.312,18.393 c -6.208,0 -10.67,-4.657 -10.67,-10.67 0,-5.821 4.268,-10.478 10.281,-10.478 6.791,0 11.059,4.657 10.866,10.478 0,6.013 -4.075,10.67 -10.477,10.67"
                   style="fill:#ffffff;fill-opacity:1;fill-rule:nonzero;stroke:none"
                   id="path3243"
                   inkscape:connector-curvature="0" /></g><g
                 transform="translate(660.6582,271.0552)"
                 id="g3245"><path
                   d="m 0,0 -7.819,-36.533 c -0.098,-1.082 -0.241,-2.148 -0.454,-3.191 -0.246,-1.198 -0.588,-2.356 -0.977,-3.494 l -0.043,-0.198 -0.02,0.012 c -3.931,-11.269 -14.628,-19.367 -27.238,-19.367 -15.94,0 -28.864,12.922 -28.864,28.865 0,3.01 0.465,5.912 1.32,8.641 l 12.651,-3.588 c -0.539,-1.588 -0.845,-3.283 -0.845,-5.053 0,-8.694 7.047,-15.74 15.738,-15.74 7.721,0 14.13,5.563 15.469,12.895 l 9.169,46.191 c -7.27,4.141 -15.674,6.518 -24.638,6.518 -27.538,0 -49.864,-22.325 -49.864,-49.864 0,-27.541 22.326,-49.865 49.864,-49.865 27.54,0 49.865,22.324 49.865,49.865 C 13.314,-20.809 8.257,-8.898 0,0"
                   style="fill:#ffffff;fill-opacity:1;fill-rule:nonzero;stroke:none"
                   id="path3247"
                   inkscape:connector-curvature="0" /></g><g
                 transform="translate(667.9277,278.8916)"
                 id="g3249"><path
                   d="m 0,0 c -0.412,-0.333 -0.845,-0.64 -1.291,-0.927 10.184,-10.607 16.462,-24.987 16.462,-40.816 0,-32.527 -26.464,-58.989 -58.991,-58.989 -32.527,0 -58.991,26.462 -58.991,58.989 0,32.528 26.464,58.99 58.991,58.99 7.1,0 13.912,-1.262 20.22,-3.571 0.084,0.526 0.197,1.044 0.335,1.55 -6.422,2.324 -13.341,3.596 -20.555,3.596 -33.395,0 -60.565,-27.169 -60.565,-60.565 0,-33.395 27.17,-60.565 60.565,-60.565 33.395,0 60.565,27.17 60.565,60.565 C 16.745,-25.572 10.362,-10.873 0,0"
                   style="fill:#ffffff;fill-opacity:1;fill-rule:nonzero;stroke:none"
                   id="path3251"
                   inkscape:connector-curvature="0" /></g></g></g></g></g></g></g></svg>